REM MD5 93c422ddc2b50295ccb7c719734c1baa
FILE "Toys R Us - Test Drive Promotion (USA).bin" BINARY
  TRACK 01 MODE2/2352
    INDEX 01 00:00:00
  TRACK 02 AUDIO
    INDEX 00 09:37:49
    INDEX 01 09:39:49
  TRACK 03 AUDIO
    INDEX 00 12:02:29
    INDEX 01 12:04:29
REM LEADOUT 12:18:24
